<svg width="34" height="34" viewBox="0 0 34 34" fill="none" xmlns="http://www.w3.org/2000/svg">
<path d="M31.0417 32.4347L32.6989 25.973C32.903 25.2903 32.5463 24.5314 31.8666 24.2023L24.9414 21.0334C24.3227 20.7683 23.6308 20.939 23.1813 21.4283L19.9648 25.1639C15.2707 22.7993 11.3674 18.7659 9.17387 13.8363L13.0611 10.8047C13.5715 10.3794 13.7756 9.69667 13.5409 9.06579L10.7116 1.99508C10.4158 1.3002 9.67364 0.969601 8.98331 1.07789L2.44883 2.41977C1.75699 2.59054 1.30597 3.14226 1.28778 3.89204C0.899652 19.8873 13.518 33.1973 29.5758 33.587C30.2631 33.6037 30.8375 33.1174 31.0417 32.4347Z" fill="black"/>
</svg>
