<svg width="20" height="20" viewBox="0 0 20 20" fill="none" xmlns="http://www.w3.org/2000/svg">
<path d="M19.4629 8.39175H18.7056V8.35314H10.235V12.1178H15.5549C14.7773 14.309 12.6927 15.8826 10.235 15.8826C7.11552 15.8826 4.58795 13.355 4.58795 10.2355C4.58795 7.11601 7.11552 4.58844 10.235 4.58844C11.6743 4.58844 12.985 5.13072 13.9813 6.01858L16.6431 3.35682C14.9629 1.79064 12.7148 0.82373 10.235 0.82373C5.03648 0.82373 0.823242 5.03697 0.823242 10.2355C0.823242 15.434 5.03648 19.6473 10.235 19.6473C15.4335 19.6473 19.6468 15.434 19.6468 10.2355C19.6468 9.60498 19.5824 8.98917 19.4629 8.39175Z" fill="#FBBC05"/>
<path d="M1.9082 5.85498L5.00195 8.12336C5.83835 6.05167 7.86409 4.58844 10.2354 4.58844C11.6747 4.58844 12.9854 5.13072 13.9817 6.01858L16.6435 3.35682C14.9634 1.79064 12.7152 0.82373 10.2354 0.82373C6.6196 0.82373 3.48541 2.86417 1.9082 5.85498Z" fill="#EA4335"/>
<path d="M10.2351 19.6472C12.6653 19.6472 14.8748 18.7171 16.5458 17.2042L13.6322 14.7391C12.6873 15.4542 11.5127 15.8825 10.2351 15.8825C7.78659 15.8825 5.70939 14.3219 4.9263 12.1436L1.85645 14.5075C3.41343 17.5553 6.57703 19.6472 10.2351 19.6472Z" fill="#34A853"/>
<path d="M19.4633 8.39163H18.7059V8.35303H10.2354V12.1177H15.5552C15.182 13.171 14.5037 14.0773 13.6306 14.7391C13.6324 14.7391 13.6324 14.7391 13.6324 14.7391L16.546 17.2041C16.3401 17.3898 19.6471 14.9413 19.6471 10.2354C19.6471 9.60487 19.5828 8.98906 19.4633 8.39163Z" fill="#4285F4"/>
</svg>
